{
  "asset": {
    "copyright": "",
    "generator": "Source 2 Viewer 6.0.0.0 - https://valveresourceformat.github.io",
    "version": "2.0"
  },
  "accessors": [
    {
      "bufferView": 0,
      "componentType": 5126,
      "count": 1122,
      "max": [
        2.697195053100586,
        23.6151065826416,
        18.804157257080078
      ],
      "min": [
        -5.822249889373779,
        -23.6151065826416,
        2.04502010345459
      ],
      "type": "VEC3"
    },
    {
      "bufferView": 1,
      "componentType": 5126,
      "count": 1122,
      "max": [
        0.9866939187049866,
        0.9946592450141907
      ],
      "min": [
        0.0276497695595026,
        0.4064455032348633
      ],
      "type": "VEC2"
    },
    {
      "bufferView": 2,
      "componentType": 5126,
      "count": 1122,
      "max": [
        0.9974828362464905,
        0.998073399066925,
        0.9908706545829773
      ],
      "min": [
        -0.9997313618659973,
        -0.998073399066925,
        -0.9898331761360168
      ],
      "type": "VEC3"
    },
    {
      "bufferView": 3,
      "componentType": 5126,
      "count": 1122,
      "max": [
        0.9998700022697449,
        0.9974828362464905,
        0.9656401872634888,
        1
      ],
      "min": [
        -0.9988528490066528,
        -0.9974828362464905,
        -0.8856388926506042,
        -1
      ],
      "type": "VEC4"
    },
    {
      "bufferView": 4,
      "componentType": 5123,
      "count": 1122,
      "type": "VEC4"
    },
    {
      "bufferView": 5,
      "componentType": 5126,
      "count": 1122,
      "max": [
        1,
        0.4274509847164154,
        0,
        0
      ],
      "min": [
        0.572549045085907,
        0,
        0,
        0
      ],
      "type": "VEC4"
    },
    {
      "bufferView": 6,
      "componentType": 5125,
      "count": 6000,
      "type": "SCALAR"
    },
    {
      "name": "Bind Matrices",
      "bufferView": 7,
      "componentType": 5126,
      "count": 4,
      "max": [
        0.016542812809348106,
        -0.014421084895730019,
        0.9997591376304626,
        0,
        0.7599377632141113,
        0.6496236324310303,
        0.6822568774223328,
        0,
        -0.6497836112976074,
        0.014456137083470821,
        0.7309651970863342,
        0,
        -4.45180082321167,
        16.683549880981445,
        17.344322204589844,
        1
      ],
      "min": [
        -0.005462378729134798,
        -0.9998773336410522,
        -0.9997591376304626,
        0,
        -0.7599391937255859,
        -0.6496252417564392,
        0.021944819018244743,
        0,
        -0.68226158618927,
        -0.7601191997528076,
        -0.7309665679931641,
        0,
        -15.447549819946289,
        -1.928467869758606,
        -17.344316482543945,
        1
      ],
      "type": "MAT4"
    }
  ],
  "bufferViews": [
    {
      "buffer": 0,
      "byteLength": 13464,
      "byteOffset": 59904,
      "target": 34962
    },
    {
      "buffer": 0,
      "byteLength": 8976,
      "byteOffset": 86832,
      "target": 34962
    },
    {
      "buffer": 0,
      "byteLength": 13464,
      "byteOffset": 73368,
      "target": 34962
    },
    {
      "buffer": 0,
      "byteLength": 17952,
      "byteOffset": 24000,
      "target": 34962
    },
    {
      "buffer": 0,
      "byteLength": 8976,
      "byteOffset": 95808,
      "target": 34962
    },
    {
      "buffer": 0,
      "byteLength": 17952,
      "byteOffset": 41952,
      "target": 34962
    },
    {
      "buffer": 0,
      "byteLength": 24000,
      "target": 34963
    },
    {
      "buffer": 0,
      "byteLength": 256,
      "byteOffset": 104784
    }
  ],
  "buffers": [
    {
      "byteLength": 105040,
      "uri": "sleeve_ctm_gendarmerie.bin"
    }
  ],
  "images": [
    {
      "name": "sleeve_gendarmerie_color_psd_eab713b5.vtex",
      "uri": "sleeve_gendarmerie_color_psd_eab713b5.png"
    },
    {
      "name": "sleeve_gendarmerie_normal_psd_1187e989.vtex",
      "uri": "sleeve_gendarmerie_normal_psd_1187e989.png"
    },
    {
      "name": "sleeve_gendarmerie_ao_psd_3ea5af4f_orm_773285482.png",
      "uri": "sleeve_gendarmerie_ao_psd_3ea5af4f_orm_773285482.png"
    }
  ],
  "materials": [
    {
      "extras": {
        "baseColorTexture": {
          "index": 0
        }
      },
      "name": "sleeve_ctm_gendarmerie",
      "normalTexture": {
        "index": 1
      },
      "occlusionTexture": {
        "index": 2
      },
      "pbrMetallicRoughness": {
        "baseColorTexture": {
          "index": 0
        },
        "metallicRoughnessTexture": {
          "index": 2
        }
      }
    }
  ],
  "meshes": [
    {
      "name": "sleeve_ctm_gendarmerie.vmdl_c.v_sleeve_gendarmerie",
      "primitives": [
        {
          "attributes": {
            "POSITION": 0,
            "TEXCOORD_0": 1,
            "NORMAL": 2,
            "TANGENT": 3,
            "JOINTS_0": 4,
            "WEIGHTS_0": 5
          },
          "indices": 6,
          "material": 0
        }
      ]
    }
  ],
  "nodes": [
    {
      "name": "sleeve_ctm_gendarmerie.vmdl_c",
      "children": [
        1,
        2,
        3,
        4
      ],
      "matrix": [
        3.027916E-09,
        0,
        0.025399996,
        0,
        0.025399996,
        3.027916E-09,
        0,
        0,
        0,
        0.025399996,
        3.027916E-09,
        0,
        0,
        0,
        0,
        1
      ]
    },
    {
      "name": "hand_l",
      "rotation": [
        0.6453594,
        0.28879905,
        -0.63900226,
        -0.30295625
      ],
      "translation": [
        -1.7542442,
        22.62656,
        2.6443655
      ]
    },
    {
      "name": "arm_lower_l_twist",
      "rotation": [
        -0.25374812,
        0.26481935,
        0.6577248,
        0.65793675
      ],
      "translation": [
        -1.6980054,
        15.099546,
        9.668676
      ]
    },
    {
      "name": "hand_r",
      "rotation": [
        -0.30295703,
        0.63900185,
        -0.28879964,
        0.64535916
      ],
      "translation": [
        -1.7542388,
        -22.626623,
        2.6444006
      ]
    },
    {
      "name": "arm_lower_r_twist",
      "rotation": [
        0.6579371,
        -0.6577249,
        -0.26481864,
        -0.25374752
      ],
      "translation": [
        -1.6980025,
        -15.0995455,
        9.668699
      ]
    },
    {
      "name": "sleeve_ctm_gendarmerie.vmdl_c.v_sleeve_gendarmerie",
      "mesh": 0,
      "skin": 0
    }
  ],
  "samplers": [
    {
      "magFilter": 9729,
      "minFilter": 9987
    }
  ],
  "scenes": [
    {
      "name": "sleeve_ctm_gendarmerie.vmdl_c",
      "nodes": [
        0,
        5
      ]
    }
  ],
  "skins": [
    {
      "inverseBindMatrices": 7,
      "joints": [
        1,
        2,
        3,
        4
      ]
    }
  ],
  "textures": [
    {
      "name": "sleeve_gendarmerie_color_psd_eab713b5.vtex",
      "sampler": 0,
      "source": 0
    },
    {
      "name": "sleeve_gendarmerie_normal_psd_1187e989.vtex",
      "sampler": 0,
      "source": 1
    },
    {
      "name": "sleeve_gendarmerie_ao_psd_3ea5af4f_orm_773285482.png",
      "sampler": 0,
      "source": 2
    }
  ]
}