{
  "asset": {
    "copyright": "",
    "generator": "Source 2 Viewer 6.0.0.0 - https://valveresourceformat.github.io",
    "version": "2.0"
  },
  "accessors": [
    {
      "bufferView": 0,
      "componentType": 5126,
      "count": 1954,
      "max": [
        1.6101527214050293,
        23.74028778076172,
        16.938228607177734
      ],
      "min": [
        -4.578615665435791,
        -23.740293502807617,
        2.0845911502838135
      ],
      "type": "VEC3"
    },
    {
      "bufferView": 1,
      "componentType": 5126,
      "count": 1954,
      "max": [
        0.9958494901657104,
        0.9913327693939209
      ],
      "min": [
        0.003875850699841976,
        0.41026031970977783
      ],
      "type": "VEC2"
    },
    {
      "bufferView": 2,
      "componentType": 5126,
      "count": 1954,
      "max": [
        0.9998700022697449,
        0.9993062615394592,
        0.9849671721458435
      ],
      "min": [
        -0.9993062615394592,
        -0.9993062615394592,
        -0.9895864725112915
      ],
      "type": "VEC3"
    },
    {
      "bufferView": 3,
      "componentType": 5126,
      "count": 1954,
      "max": [
        0.9993062615394592,
        0.847352147102356,
        0.8221786618232727,
        1
      ],
      "min": [
        -0.9998700022697449,
        -0.847352147102356,
        -0.9656401872634888,
        -1
      ],
      "type": "VEC4"
    },
    {
      "bufferView": 4,
      "componentType": 5123,
      "count": 1954,
      "type": "VEC4"
    },
    {
      "bufferView": 5,
      "componentType": 5126,
      "count": 1954,
      "max": [
        1,
        0.4274509847164154,
        0,
        0
      ],
      "min": [
        0.572549045085907,
        0,
        0,
        0
      ],
      "type": "VEC4"
    },
    {
      "bufferView": 6,
      "componentType": 5125,
      "count": 10818,
      "type": "SCALAR"
    },
    {
      "name": "Bind Matrices",
      "bufferView": 7,
      "componentType": 5126,
      "count": 4,
      "max": [
        0.016543244943022728,
        -0.014420396648347378,
        0.9997590184211731,
        0,
        0.7599377632141113,
        0.649623692035675,
        0.6822568774223328,
        0,
        -0.6497835516929626,
        0.01445517223328352,
        0.7309651970863342,
        0,
        -4.45182466506958,
        16.683595657348633,
        17.34433364868164,
        1
      ],
      "min": [
        -0.005461715627461672,
        -0.9998774528503418,
        -0.9997590780258179,
        0,
        -0.7599390745162964,
        -0.6496251225471497,
        0.021944837644696236,
        0,
        -0.68226158618927,
        -0.7601190805435181,
        -0.7309667468070984,
        0,
        -15.447623252868652,
        -1.9284625053405762,
        -17.3443603515625,
        1
      ],
      "type": "MAT4"
    }
  ],
  "bufferViews": [
    {
      "buffer": 0,
      "byteLength": 23448,
      "byteOffset": 105800,
      "target": 34962
    },
    {
      "buffer": 0,
      "byteLength": 15632,
      "byteOffset": 152696,
      "target": 34962
    },
    {
      "buffer": 0,
      "byteLength": 23448,
      "byteOffset": 129248,
      "target": 34962
    },
    {
      "buffer": 0,
      "byteLength": 31264,
      "byteOffset": 43272,
      "target": 34962
    },
    {
      "buffer": 0,
      "byteLength": 15632,
      "byteOffset": 168328,
      "target": 34962
    },
    {
      "buffer": 0,
      "byteLength": 31264,
      "byteOffset": 74536,
      "target": 34962
    },
    {
      "buffer": 0,
      "byteLength": 43272,
      "target": 34963
    },
    {
      "buffer": 0,
      "byteLength": 256,
      "byteOffset": 183960
    }
  ],
  "buffers": [
    {
      "byteLength": 184216,
      "uri": "sleeve_ctm_st6_variante.bin"
    }
  ],
  "images": [
    {
      "name": "sleeve_st6_variante_color_psd_fd2a1724.vtex",
      "uri": "sleeve_st6_variante_color_psd_fd2a1724.png"
    },
    {
      "name": "sleeve_st6_v2_normal_psd_4f46d59a.vtex",
      "uri": "sleeve_st6_v2_normal_psd_4f46d59a.png"
    },
    {
      "name": "sleeve_st6_ao_psd_74ef3e2d_orm_2299049515.png",
      "uri": "sleeve_st6_ao_psd_74ef3e2d_orm_2299049515.png"
    }
  ],
  "materials": [
    {
      "extras": {
        "baseColorTexture": {
          "index": 0
        }
      },
      "name": "sleeve_st6_variante",
      "normalTexture": {
        "index": 1
      },
      "occlusionTexture": {
        "index": 2
      },
      "pbrMetallicRoughness": {
        "baseColorTexture": {
          "index": 0
        },
        "metallicRoughnessTexture": {
          "index": 2
        }
      }
    }
  ],
  "meshes": [
    {
      "name": "sleeve_ctm_st6_variante.vmdl_c.unnamed_1",
      "primitives": [
        {
          "attributes": {
            "POSITION": 0,
            "TEXCOORD_0": 1,
            "NORMAL": 2,
            "TANGENT": 3,
            "JOINTS_0": 4,
            "WEIGHTS_0": 5
          },
          "indices": 6,
          "material": 0
        }
      ]
    }
  ],
  "nodes": [
    {
      "name": "sleeve_ctm_st6_variante.vmdl_c",
      "children": [
        1,
        2,
        3,
        4
      ],
      "matrix": [
        3.027916E-09,
        0,
        0.025399996,
        0,
        0.025399996,
        3.027916E-09,
        0,
        0,
        0,
        0.025399996,
        3.027916E-09,
        0,
        0,
        0,
        0,
        1
      ]
    },
    {
      "name": "hand_l",
      "rotation": [
        0.6453597,
        0.2887992,
        -0.63900197,
        -0.30295616
      ],
      "translation": [
        -1.7542475,
        22.626717,
        2.6443396
      ]
    },
    {
      "name": "arm_lower_l_twist",
      "rotation": [
        -0.25374848,
        0.26481903,
        0.6577247,
        0.6579369
      ],
      "translation": [
        -1.6980102,
        15.099601,
        9.668684
      ]
    },
    {
      "name": "hand_r",
      "rotation": [
        -0.30295694,
        0.63900167,
        -0.2887997,
        0.64535946
      ],
      "translation": [
        -1.7542372,
        -22.626646,
        2.6443806
      ]
    },
    {
      "name": "arm_lower_r_twist",
      "rotation": [
        0.65793717,
        -0.65772486,
        -0.26481837,
        -0.25374767
      ],
      "translation": [
        -1.6980045,
        -15.099554,
        9.668703
      ]
    },
    {
      "name": "sleeve_ctm_st6_variante.vmdl_c.unnamed_1",
      "mesh": 0,
      "skin": 0
    }
  ],
  "samplers": [
    {
      "magFilter": 9729,
      "minFilter": 9987
    }
  ],
  "scenes": [
    {
      "name": "sleeve_ctm_st6_variante.vmdl_c",
      "nodes": [
        0,
        5
      ]
    }
  ],
  "skins": [
    {
      "inverseBindMatrices": 7,
      "joints": [
        1,
        2,
        3,
        4
      ]
    }
  ],
  "textures": [
    {
      "name": "sleeve_st6_variante_color_psd_fd2a1724.vtex",
      "sampler": 0,
      "source": 0
    },
    {
      "name": "sleeve_st6_v2_normal_psd_4f46d59a.vtex",
      "sampler": 0,
      "source": 1
    },
    {
      "name": "sleeve_st6_ao_psd_74ef3e2d_orm_2299049515.png",
      "sampler": 0,
      "source": 2
    }
  ]
}