{
  "asset": {
    "copyright": "",
    "generator": "Source 2 Viewer 6.0.0.0 - https://valveresourceformat.github.io",
    "version": "2.0"
  },
  "accessors": [
    {
      "bufferView": 0,
      "componentType": 5126,
      "count": 2214,
      "max": [
        3.1819047927856445,
        24.07364273071289,
        22.114173889160156
      ],
      "min": [
        -6.246068477630615,
        -24.07364845275879,
        1.7029300928115845
      ],
      "type": "VEC3"
    },
    {
      "bufferView": 1,
      "componentType": 5126,
      "count": 2214,
      "max": [
        0.599780261516571,
        0.42323067784309387
      ],
      "min": [
        -0.99993896484375,
        0.00906399730592966
      ],
      "type": "VEC2"
    },
    {
      "bufferView": 2,
      "componentType": 5126,
      "count": 2214,
      "max": [
        0.9998700022697449,
        0.999462902545929,
        0.9997313618659973
      ],
      "min": [
        -0.9960377216339111,
        -0.999462902545929,
        -0.9993062615394592
      ],
      "type": "VEC3"
    },
    {
      "bufferView": 3,
      "componentType": 5126,
      "count": 2214,
      "max": [
        0.9998700022697449,
        0.9998700022697449,
        0.9941523671150208,
        1
      ],
      "min": [
        -0.9954080581665039,
        -0.9998700022697449,
        -0.9683641195297241,
        -1
      ],
      "type": "VEC4"
    },
    {
      "bufferView": 4,
      "componentType": 5123,
      "count": 2214,
      "type": "VEC4"
    },
    {
      "bufferView": 5,
      "componentType": 5126,
      "count": 2214,
      "max": [
        1,
        0.03921568766236305,
        0,
        0
      ],
      "min": [
        0.9607843160629272,
        0,
        0,
        0
      ],
      "type": "VEC4"
    },
    {
      "bufferView": 6,
      "componentType": 5125,
      "count": 10440,
      "type": "SCALAR"
    },
    {
      "name": "Bind Matrices",
      "bufferView": 7,
      "componentType": 5126,
      "count": 3,
      "max": [
        0.01654324308037758,
        -0.014420418068766594,
        0.007845564745366573,
        0,
        0.7599378824234009,
        0.001359902904368937,
        0.682282030582428,
        0,
        -0.6497851610183716,
        0.009462258778512478,
        0.7310469746589661,
        0,
        -4.451823711395264,
        16.6837100982666,
        17.357105255126953,
        1
      ],
      "min": [
        -0.005461781285703182,
        -0.999954342842102,
        -0.9997591376304626,
        0,
        -0.7310890555381775,
        -0.6496251821517944,
        0.021944984793663025,
        0,
        -0.6822615265846252,
        -0.7601178884506226,
        -0.7310481667518616,
        0,
        -15.447691917419434,
        -1.8099546432495117,
        -17.357131958007812,
        1
      ],
      "type": "MAT4"
    }
  ],
  "bufferViews": [
    {
      "buffer": 0,
      "byteLength": 26568,
      "byteOffset": 112608,
      "target": 34962
    },
    {
      "buffer": 0,
      "byteLength": 17712,
      "byteOffset": 165744,
      "target": 34962
    },
    {
      "buffer": 0,
      "byteLength": 26568,
      "byteOffset": 139176,
      "target": 34962
    },
    {
      "buffer": 0,
      "byteLength": 35424,
      "byteOffset": 41760,
      "target": 34962
    },
    {
      "buffer": 0,
      "byteLength": 17712,
      "byteOffset": 183456,
      "target": 34962
    },
    {
      "buffer": 0,
      "byteLength": 35424,
      "byteOffset": 77184,
      "target": 34962
    },
    {
      "buffer": 0,
      "byteLength": 41760,
      "target": 34963
    },
    {
      "buffer": 0,
      "byteLength": 192,
      "byteOffset": 201168
    }
  ],
  "buffers": [
    {
      "byteLength": 201360,
      "uri": "sleeve_tm_heavy.bin"
    }
  ],
  "images": [
    {
      "name": "tm_heavy_riot_arms_color_psd_a9df819f.vtex",
      "uri": "tm_heavy_riot_arms_color_psd_a9df819f.png"
    },
    {
      "name": "tm_heavy_riot_arms_normal_psd_82fd4bf0.vtex",
      "uri": "tm_heavy_riot_arms_normal_psd_82fd4bf0.png"
    },
    {
      "name": "tm_heavy_riot_arms_normal_psd_82fd4bf0_orm_2929679003.png",
      "uri": "tm_heavy_riot_arms_normal_psd_82fd4bf0_orm_2929679003.png"
    }
  ],
  "materials": [
    {
      "extras": {
        "baseColorTexture": {
          "index": 0
        }
      },
      "name": "tm_heavy_riot_arms",
      "normalTexture": {
        "index": 1
      },
      "occlusionTexture": {
        "index": 2
      },
      "pbrMetallicRoughness": {
        "baseColorTexture": {
          "index": 0
        },
        "metallicRoughnessTexture": {
          "index": 2
        }
      }
    }
  ],
  "meshes": [
    {
      "name": "sleeve_tm_heavy.vmdl_c.v_sleeve_balkan",
      "primitives": [
        {
          "attributes": {
            "POSITION": 0,
            "TEXCOORD_0": 1,
            "NORMAL": 2,
            "TANGENT": 3,
            "JOINTS_0": 4,
            "WEIGHTS_0": 5
          },
          "indices": 6,
          "material": 0
        }
      ]
    }
  ],
  "nodes": [
    {
      "name": "sleeve_tm_heavy.vmdl_c",
      "children": [
        1,
        3
      ],
      "matrix": [
        3.027916E-09,
        0,
        0.025399996,
        0,
        0.025399996,
        3.027916E-09,
        0,
        0,
        0,
        0.025399996,
        3.027916E-09,
        0,
        0,
        0,
        0,
        1
      ]
    },
    {
      "name": "arm_lower_l",
      "children": [
        2
      ],
      "rotation": [
        -0.2559938,
        0.26257128,
        0.65862525,
        0.6570664
      ],
      "translation": [
        -1.6980106,
        15.099606,
        9.668687
      ]
    },
    {
      "name": "hand_l",
      "rotation": [
        -0.7044833,
        -0.007838159,
        -0.023051642,
        0.70930284
      ],
      "translation": [
        10.29579,
        1.692772E-05,
        0.00015830994
      ]
    },
    {
      "name": "arm_lower_r",
      "rotation": [
        -0.6570668,
        0.65862536,
        0.2625707,
        0.2559932
      ],
      "translation": [
        -1.698005,
        -15.09956,
        9.668707
      ]
    },
    {
      "name": "sleeve_tm_heavy.vmdl_c.v_sleeve_balkan",
      "mesh": 0,
      "skin": 0
    }
  ],
  "samplers": [
    {
      "magFilter": 9729,
      "minFilter": 9987
    }
  ],
  "scenes": [
    {
      "name": "sleeve_tm_heavy.vmdl_c",
      "nodes": [
        0,
        4
      ]
    }
  ],
  "skins": [
    {
      "inverseBindMatrices": 7,
      "joints": [
        1,
        2,
        3
      ]
    }
  ],
  "textures": [
    {
      "name": "tm_heavy_riot_arms_color_psd_a9df819f.vtex",
      "sampler": 0,
      "source": 0
    },
    {
      "name": "tm_heavy_riot_arms_normal_psd_82fd4bf0.vtex",
      "sampler": 0,
      "source": 1
    },
    {
      "name": "tm_heavy_riot_arms_normal_psd_82fd4bf0_orm_2929679003.png",
      "sampler": 0,
      "source": 2
    }
  ]
}