{
  "asset": {
    "copyright": "",
    "generator": "Source 2 Viewer 6.0.0.0 - https://valveresourceformat.github.io",
    "version": "2.0"
  },
  "accessors": [
    {
      "bufferView": 0,
      "componentType": 5126,
      "count": 2388,
      "max": [
        2.5560436248779297,
        23.556236267089844,
        22.13528823852539
      ],
      "min": [
        -5.022531986236572,
        -23.55624008178711,
        2.215111494064331
      ],
      "type": "VEC3"
    },
    {
      "bufferView": 1,
      "componentType": 5126,
      "count": 2388,
      "max": [
        0.9938657879829407,
        0.9927060604095459
      ],
      "min": [
        0.007110812701284885,
        0.41569262742996216
      ],
      "type": "VEC2"
    },
    {
      "bufferView": 2,
      "componentType": 5126,
      "count": 2388,
      "max": [
        1,
        0.998566746711731,
        0.9918366074562073
      ],
      "min": [
        -0.9998700022697449,
        -0.9988528490066528,
        -0.9974828362464905
      ],
      "type": "VEC3"
    },
    {
      "bufferView": 3,
      "componentType": 5126,
      "count": 2388,
      "max": [
        0.9998700022697449,
        0.9665486812591553,
        0.998566746711731,
        1
      ],
      "min": [
        -0.9998700022697449,
        -0.9665486812591553,
        -0.9898331761360168,
        -1
      ],
      "type": "VEC4"
    },
    {
      "bufferView": 4,
      "componentType": 5123,
      "count": 2388,
      "type": "VEC4"
    },
    {
      "bufferView": 5,
      "componentType": 5126,
      "count": 2388,
      "max": [
        1,
        0.4274509847164154,
        0,
        0
      ],
      "min": [
        0.572549045085907,
        0,
        0,
        0
      ],
      "type": "VEC4"
    },
    {
      "bufferView": 6,
      "componentType": 5125,
      "count": 12540,
      "type": "SCALAR"
    },
    {
      "name": "Bind Matrices",
      "bufferView": 7,
      "componentType": 5126,
      "count": 4,
      "max": [
        0.016543244943022728,
        -0.014420396648347378,
        0.9997590184211731,
        0,
        0.7599377632141113,
        0.649623692035675,
        0.6822568774223328,
        0,
        -0.6497835516929626,
        0.01445517223328352,
        0.7309651970863342,
        0,
        -4.45182466506958,
        16.683595657348633,
        17.34433364868164,
        1
      ],
      "min": [
        -0.005461715627461672,
        -0.9998774528503418,
        -0.9997590780258179,
        0,
        -0.7599390745162964,
        -0.6496251225471497,
        0.021944837644696236,
        0,
        -0.68226158618927,
        -0.7601190805435181,
        -0.7309667468070984,
        0,
        -15.447623252868652,
        -1.9284625053405762,
        -17.3443603515625,
        1
      ],
      "type": "MAT4"
    }
  ],
  "bufferViews": [
    {
      "buffer": 0,
      "byteLength": 28656,
      "byteOffset": 126576,
      "target": 34962
    },
    {
      "buffer": 0,
      "byteLength": 19104,
      "byteOffset": 183888,
      "target": 34962
    },
    {
      "buffer": 0,
      "byteLength": 28656,
      "byteOffset": 155232,
      "target": 34962
    },
    {
      "buffer": 0,
      "byteLength": 38208,
      "byteOffset": 50160,
      "target": 34962
    },
    {
      "buffer": 0,
      "byteLength": 19104,
      "byteOffset": 202992,
      "target": 34962
    },
    {
      "buffer": 0,
      "byteLength": 38208,
      "byteOffset": 88368,
      "target": 34962
    },
    {
      "buffer": 0,
      "byteLength": 50160,
      "target": 34963
    },
    {
      "buffer": 0,
      "byteLength": 256,
      "byteOffset": 222096
    }
  ],
  "buffers": [
    {
      "byteLength": 222352,
      "uri": "sleeve_balkan_variantf.bin"
    }
  ],
  "images": [
    {
      "name": "sleeve_balkan_variantf_color_psd_49361ae8.vtex",
      "uri": "sleeve_balkan_variantf_color_psd_49361ae8.png"
    },
    {
      "name": "sleeve_balkan_variantf_normal_psd_e280488e.vtex",
      "uri": "sleeve_balkan_variantf_normal_psd_e280488e.png"
    },
    {
      "name": "sleeve_balkan_variantf_ao_psd_15a70497_orm_3222097873.png",
      "uri": "sleeve_balkan_variantf_ao_psd_15a70497_orm_3222097873.png"
    }
  ],
  "materials": [
    {
      "extras": {
        "baseColorTexture": {
          "index": 0
        }
      },
      "name": "sleeve_balkan_variantf",
      "normalTexture": {
        "index": 1
      },
      "occlusionTexture": {
        "index": 2
      },
      "pbrMetallicRoughness": {
        "baseColorTexture": {
          "index": 0
        },
        "metallicRoughnessTexture": {
          "index": 2
        }
      }
    }
  ],
  "meshes": [
    {
      "name": "sleeve_balkan_variantf.vmdl_c.v_sleeve_balkan",
      "primitives": [
        {
          "attributes": {
            "POSITION": 0,
            "TEXCOORD_0": 1,
            "NORMAL": 2,
            "TANGENT": 3,
            "JOINTS_0": 4,
            "WEIGHTS_0": 5
          },
          "indices": 6,
          "material": 0
        }
      ]
    }
  ],
  "nodes": [
    {
      "name": "sleeve_balkan_variantf.vmdl_c",
      "children": [
        1,
        2,
        3,
        4
      ],
      "matrix": [
        3.027916E-09,
        0,
        0.025399996,
        0,
        0.025399996,
        3.027916E-09,
        0,
        0,
        0,
        0.025399996,
        3.027916E-09,
        0,
        0,
        0,
        0,
        1
      ]
    },
    {
      "name": "hand_l",
      "rotation": [
        0.6453597,
        0.2887992,
        -0.63900197,
        -0.30295616
      ],
      "translation": [
        -1.7542475,
        22.626717,
        2.6443396
      ]
    },
    {
      "name": "arm_lower_l_twist",
      "rotation": [
        -0.25374848,
        0.26481903,
        0.6577247,
        0.6579369
      ],
      "translation": [
        -1.6980102,
        15.099601,
        9.668684
      ]
    },
    {
      "name": "hand_r",
      "rotation": [
        -0.30295694,
        0.63900167,
        -0.2887997,
        0.64535946
      ],
      "translation": [
        -1.7542372,
        -22.626646,
        2.6443806
      ]
    },
    {
      "name": "arm_lower_r_twist",
      "rotation": [
        0.65793717,
        -0.65772486,
        -0.26481837,
        -0.25374767
      ],
      "translation": [
        -1.6980045,
        -15.099554,
        9.668703
      ]
    },
    {
      "name": "sleeve_balkan_variantf.vmdl_c.v_sleeve_balkan",
      "mesh": 0,
      "skin": 0
    }
  ],
  "samplers": [
    {
      "magFilter": 9729,
      "minFilter": 9987
    }
  ],
  "scenes": [
    {
      "name": "sleeve_balkan_variantf.vmdl_c",
      "nodes": [
        0,
        5
      ]
    }
  ],
  "skins": [
    {
      "inverseBindMatrices": 7,
      "joints": [
        1,
        2,
        3,
        4
      ]
    }
  ],
  "textures": [
    {
      "name": "sleeve_balkan_variantf_color_psd_49361ae8.vtex",
      "sampler": 0,
      "source": 0
    },
    {
      "name": "sleeve_balkan_variantf_normal_psd_e280488e.vtex",
      "sampler": 0,
      "source": 1
    },
    {
      "name": "sleeve_balkan_variantf_ao_psd_15a70497_orm_3222097873.png",
      "sampler": 0,
      "source": 2
    }
  ]
}