{
  "asset": {
    "copyright": "",
    "generator": "Source 2 Viewer 6.0.0.0 - https://valveresourceformat.github.io",
    "version": "2.0"
  },
  "accessors": [
    {
      "bufferView": 0,
      "componentType": 5126,
      "count": 841,
      "max": [
        2.4237515926361084,
        23.448158264160156,
        20.279186248779297
      ],
      "min": [
        -4.797133445739746,
        -23.469375610351562,
        1.8836885690689087
      ],
      "type": "VEC3"
    },
    {
      "bufferView": 1,
      "componentType": 5126,
      "count": 841,
      "max": [
        0.9806207418441772,
        0.9758598804473877
      ],
      "min": [
        0.01663258858025074,
        0.4140751361846924
      ],
      "type": "VEC2"
    },
    {
      "bufferView": 2,
      "componentType": 5126,
      "count": 841,
      "max": [
        0.9988528490066528,
        0.9944270849227905,
        0.8856388926506042
      ],
      "min": [
        -0.9997313618659973,
        -0.998566746711731,
        -0.9683641195297241
      ],
      "type": "VEC3"
    },
    {
      "bufferView": 3,
      "componentType": 5126,
      "count": 841,
      "max": [
        1,
        0.9045340418815613,
        0.8845316171646118,
        1
      ],
      "min": [
        -0.998566746711731,
        -0.9045340418815613,
        -0.854964554309845,
        -1
      ],
      "type": "VEC4"
    },
    {
      "bufferView": 4,
      "componentType": 5123,
      "count": 841,
      "type": "VEC4"
    },
    {
      "bufferView": 5,
      "componentType": 5126,
      "count": 841,
      "max": [
        1,
        0.4274509847164154,
        0,
        0
      ],
      "min": [
        0.572549045085907,
        0,
        0,
        0
      ],
      "type": "VEC4"
    },
    {
      "bufferView": 6,
      "componentType": 5125,
      "count": 4410,
      "type": "SCALAR"
    },
    {
      "name": "Bind Matrices",
      "bufferView": 7,
      "componentType": 5126,
      "count": 4,
      "max": [
        0.016543244943022728,
        -0.014420396648347378,
        0.9997590184211731,
        0,
        0.7599377632141113,
        0.649623692035675,
        0.6822568774223328,
        0,
        -0.6497835516929626,
        0.01445517223328352,
        0.7309651970863342,
        0,
        -4.45182466506958,
        16.683595657348633,
        17.34433364868164,
        1
      ],
      "min": [
        -0.005461715627461672,
        -0.9998774528503418,
        -0.9997590780258179,
        0,
        -0.7599390745162964,
        -0.6496251225471497,
        0.021944837644696236,
        0,
        -0.68226158618927,
        -0.7601190805435181,
        -0.7309667468070984,
        0,
        -15.447623252868652,
        -1.9284625053405762,
        -17.3443603515625,
        1
      ],
      "type": "MAT4"
    }
  ],
  "bufferViews": [
    {
      "buffer": 0,
      "byteLength": 10092,
      "byteOffset": 44552,
      "target": 34962
    },
    {
      "buffer": 0,
      "byteLength": 6728,
      "byteOffset": 64736,
      "target": 34962
    },
    {
      "buffer": 0,
      "byteLength": 10092,
      "byteOffset": 54644,
      "target": 34962
    },
    {
      "buffer": 0,
      "byteLength": 13456,
      "byteOffset": 17640,
      "target": 34962
    },
    {
      "buffer": 0,
      "byteLength": 6728,
      "byteOffset": 71464,
      "target": 34962
    },
    {
      "buffer": 0,
      "byteLength": 13456,
      "byteOffset": 31096,
      "target": 34962
    },
    {
      "buffer": 0,
      "byteLength": 17640,
      "target": 34963
    },
    {
      "buffer": 0,
      "byteLength": 256,
      "byteOffset": 78192
    }
  ],
  "buffers": [
    {
      "byteLength": 78448,
      "uri": "sleeve_ctm_fbi.bin"
    }
  ],
  "images": [
    {
      "name": "sleeve_fbi_color_psd_46dce074.vtex",
      "uri": "sleeve_fbi_color_psd_46dce074.png"
    },
    {
      "name": "sleeve_fbi_normal_psd_4491e813.vtex",
      "uri": "sleeve_fbi_normal_psd_4491e813.png"
    },
    {
      "name": "sleeve_fbi_metal_psd_cc15e4fe_orm_2653589952.png",
      "uri": "sleeve_fbi_metal_psd_cc15e4fe_orm_2653589952.png"
    }
  ],
  "materials": [
    {
      "extras": {
        "baseColorTexture": {
          "index": 0
        }
      },
      "name": "sleeve_fbi",
      "normalTexture": {
        "index": 1
      },
      "occlusionTexture": {
        "index": 2
      },
      "pbrMetallicRoughness": {
        "baseColorFactor": [
          0.396078,
          0.513726,
          0.721569,
          1
        ],
        "baseColorTexture": {
          "index": 0
        },
        "metallicRoughnessTexture": {
          "index": 2
        }
      }
    }
  ],
  "meshes": [
    {
      "name": "sleeve_ctm_fbi.vmdl_c.v_sleeve_balkan",
      "primitives": [
        {
          "attributes": {
            "POSITION": 0,
            "TEXCOORD_0": 1,
            "NORMAL": 2,
            "TANGENT": 3,
            "JOINTS_0": 4,
            "WEIGHTS_0": 5
          },
          "indices": 6,
          "material": 0
        }
      ]
    }
  ],
  "nodes": [
    {
      "name": "sleeve_ctm_fbi.vmdl_c",
      "children": [
        1,
        2,
        3,
        4
      ],
      "matrix": [
        3.027916E-09,
        0,
        0.025399996,
        0,
        0.025399996,
        3.027916E-09,
        0,
        0,
        0,
        0.025399996,
        3.027916E-09,
        0,
        0,
        0,
        0,
        1
      ]
    },
    {
      "name": "hand_l",
      "rotation": [
        0.6453597,
        0.2887992,
        -0.63900197,
        -0.30295616
      ],
      "translation": [
        -1.7542475,
        22.626717,
        2.6443396
      ]
    },
    {
      "name": "arm_lower_l_twist",
      "rotation": [
        -0.25374848,
        0.26481903,
        0.6577247,
        0.6579369
      ],
      "translation": [
        -1.6980102,
        15.099601,
        9.668684
      ]
    },
    {
      "name": "hand_r",
      "rotation": [
        -0.30295694,
        0.63900167,
        -0.2887997,
        0.64535946
      ],
      "translation": [
        -1.7542372,
        -22.626646,
        2.6443806
      ]
    },
    {
      "name": "arm_lower_r_twist",
      "rotation": [
        0.65793717,
        -0.65772486,
        -0.26481837,
        -0.25374767
      ],
      "translation": [
        -1.6980045,
        -15.099554,
        9.668703
      ]
    },
    {
      "name": "sleeve_ctm_fbi.vmdl_c.v_sleeve_balkan",
      "mesh": 0,
      "skin": 0
    }
  ],
  "samplers": [
    {
      "magFilter": 9729,
      "minFilter": 9987
    }
  ],
  "scenes": [
    {
      "name": "sleeve_ctm_fbi.vmdl_c",
      "nodes": [
        0,
        5
      ]
    }
  ],
  "skins": [
    {
      "inverseBindMatrices": 7,
      "joints": [
        1,
        2,
        3,
        4
      ]
    }
  ],
  "textures": [
    {
      "name": "sleeve_fbi_color_psd_46dce074.vtex",
      "sampler": 0,
      "source": 0
    },
    {
      "name": "sleeve_fbi_normal_psd_4491e813.vtex",
      "sampler": 0,
      "source": 1
    },
    {
      "name": "sleeve_fbi_metal_psd_cc15e4fe_orm_2653589952.png",
      "sampler": 0,
      "source": 2
    }
  ]
}