{
  "asset": {
    "copyright": "",
    "generator": "Source 2 Viewer 6.0.0.0 - https://valveresourceformat.github.io",
    "version": "2.0"
  },
  "accessors": [
    {
      "bufferView": 0,
      "componentType": 5126,
      "count": 1190,
      "max": [
        2.041055679321289,
        22.42243194580078,
        19.36040496826172
      ],
      "min": [
        -4.861438274383545,
        -22.422439575195312,
        3.0740597248077393
      ],
      "type": "VEC3"
    },
    {
      "bufferView": 1,
      "componentType": 5126,
      "count": 1190,
      "max": [
        0.9758598804473877,
        0.9839777946472168
      ],
      "min": [
        0.027436140924692154,
        0.4115115702152252
      ],
      "type": "VEC2"
    },
    {
      "bufferView": 2,
      "componentType": 5126,
      "count": 1190,
      "max": [
        0.9998700022697449,
        0.9941523671150208,
        0.9826616048812866
      ],
      "min": [
        -0.9987523555755615,
        -0.9941523671150208,
        -0.9857161045074463
      ],
      "type": "VEC3"
    },
    {
      "bufferView": 3,
      "componentType": 5126,
      "count": 1190,
      "max": [
        0.9987523555755615,
        0.993043065071106,
        0.9739294648170471,
        1
      ],
      "min": [
        -1,
        -0.993043065071106,
        -0.9169492721557617,
        -1
      ],
      "type": "VEC4"
    },
    {
      "bufferView": 4,
      "componentType": 5123,
      "count": 1190,
      "type": "VEC4"
    },
    {
      "bufferView": 5,
      "componentType": 5126,
      "count": 1190,
      "max": [
        1,
        0.16078431904315948,
        0.03921568766236305,
        0
      ],
      "min": [
        0.8392156958580017,
        0,
        0,
        0
      ],
      "type": "VEC4"
    },
    {
      "bufferView": 6,
      "componentType": 5125,
      "count": 6396,
      "type": "SCALAR"
    },
    {
      "name": "Bind Matrices",
      "bufferView": 7,
      "componentType": 5126,
      "count": 5,
      "max": [
        0.01654369756579399,
        -0.014420396648347378,
        0.9997591376304626,
        0,
        0.7599377632141113,
        0.649623692035675,
        0.6822806000709534,
        0,
        -0.6497836112976074,
        0.014455120079219341,
        0.7309651970863342,
        0,
        -4.451823711395264,
        16.683643341064453,
        17.357105255126953,
        1
      ],
      "min": [
        -0.005461715627461672,
        -0.9999542236328125,
        -0.9997590780258179,
        0,
        -0.7599390745162964,
        -0.6496251225471497,
        0.021944837644696236,
        0,
        -0.68226158618927,
        -0.7601190805435181,
        -0.7310481667518616,
        0,
        -15.4476318359375,
        -1.928471326828003,
        -17.3443603515625,
        1
      ],
      "type": "MAT4"
    }
  ],
  "bufferViews": [
    {
      "buffer": 0,
      "byteLength": 14280,
      "byteOffset": 63664,
      "target": 34962
    },
    {
      "buffer": 0,
      "byteLength": 9520,
      "byteOffset": 92224,
      "target": 34962
    },
    {
      "buffer": 0,
      "byteLength": 14280,
      "byteOffset": 77944,
      "target": 34962
    },
    {
      "buffer": 0,
      "byteLength": 19040,
      "byteOffset": 25584,
      "target": 34962
    },
    {
      "buffer": 0,
      "byteLength": 9520,
      "byteOffset": 101744,
      "target": 34962
    },
    {
      "buffer": 0,
      "byteLength": 19040,
      "byteOffset": 44624,
      "target": 34962
    },
    {
      "buffer": 0,
      "byteLength": 25584,
      "target": 34963
    },
    {
      "buffer": 0,
      "byteLength": 320,
      "byteOffset": 111264
    }
  ],
  "buffers": [
    {
      "byteLength": 111584,
      "uri": "sleeve_tm_jumpsuit.bin"
    }
  ],
  "images": [
    {
      "name": "sleeve_jumpsuit_psd_ab90eb05.vtex",
      "uri": "sleeve_jumpsuit_psd_ab90eb05.png"
    },
    {
      "name": "sleeve_jumpsuit_normal_psd_779b3549.vtex",
      "uri": "sleeve_jumpsuit_normal_psd_779b3549.png"
    },
    {
      "name": "sleeve_jumpsuit_ao_psd_1dc6f5a6_orm_477946784.png",
      "uri": "sleeve_jumpsuit_ao_psd_1dc6f5a6_orm_477946784.png"
    }
  ],
  "materials": [
    {
      "extras": {
        "baseColorTexture": {
          "index": 0
        }
      },
      "name": "sleeve_tm_jumpsuit",
      "normalTexture": {
        "index": 1
      },
      "occlusionTexture": {
        "index": 2
      },
      "pbrMetallicRoughness": {
        "baseColorTexture": {
          "index": 0
        },
        "metallicRoughnessTexture": {
          "index": 2
        }
      }
    }
  ],
  "meshes": [
    {
      "name": "sleeve_tm_jumpsuit.vmdl_c.v_sleeve_balkan",
      "primitives": [
        {
          "attributes": {
            "POSITION": 0,
            "TEXCOORD_0": 1,
            "NORMAL": 2,
            "TANGENT": 3,
            "JOINTS_0": 4,
            "WEIGHTS_0": 5
          },
          "indices": 6,
          "material": 0
        }
      ]
    }
  ],
  "nodes": [
    {
      "name": "sleeve_tm_jumpsuit.vmdl_c",
      "children": [
        1,
        4,
        5
      ],
      "matrix": [
        3.027916E-09,
        0,
        0.025399996,
        0,
        0.025399996,
        3.027916E-09,
        0,
        0,
        0,
        0.025399996,
        3.027916E-09,
        0,
        0,
        0,
        0,
        1
      ]
    },
    {
      "name": "arm_lower_r",
      "children": [
        2,
        3
      ],
      "rotation": [
        -0.6570668,
        0.65862536,
        0.2625707,
        0.2559932
      ],
      "translation": [
        -1.698005,
        -15.09956,
        9.668707
      ]
    },
    {
      "name": "hand_r",
      "rotation": [
        0.7044832,
        0.007838172,
        -0.023051677,
        0.70930284
      ],
      "translation": [
        10.295748,
        1.21593475E-05,
        -0.00011634827
      ]
    },
    {
      "name": "arm_lower_r_twist",
      "rotation": [
        -0.0034150332,
        5.640053E-08,
        1.4901165E-08,
        0.99999416
      ],
      "translation": [
        2.193451E-05,
        9.536743E-06,
        -8.583069E-05
      ]
    },
    {
      "name": "hand_l",
      "rotation": [
        0.6453597,
        0.2887992,
        -0.63900197,
        -0.30295616
      ],
      "translation": [
        -1.7542475,
        22.626717,
        2.6443396
      ]
    },
    {
      "name": "arm_lower_l_twist",
      "rotation": [
        -0.25374848,
        0.26481903,
        0.6577247,
        0.6579369
      ],
      "translation": [
        -1.6980102,
        15.099601,
        9.668684
      ]
    },
    {
      "name": "sleeve_tm_jumpsuit.vmdl_c.v_sleeve_balkan",
      "mesh": 0,
      "skin": 0
    }
  ],
  "samplers": [
    {
      "magFilter": 9729,
      "minFilter": 9987
    }
  ],
  "scenes": [
    {
      "name": "sleeve_tm_jumpsuit.vmdl_c",
      "nodes": [
        0,
        6
      ]
    }
  ],
  "skins": [
    {
      "inverseBindMatrices": 7,
      "joints": [
        1,
        4,
        5,
        2,
        3
      ]
    }
  ],
  "textures": [
    {
      "name": "sleeve_jumpsuit_psd_ab90eb05.vtex",
      "sampler": 0,
      "source": 0
    },
    {
      "name": "sleeve_jumpsuit_normal_psd_779b3549.vtex",
      "sampler": 0,
      "source": 1
    },
    {
      "name": "sleeve_jumpsuit_ao_psd_1dc6f5a6_orm_477946784.png",
      "sampler": 0,
      "source": 2
    }
  ]
}